<svg width="16" height="16" viewBox="0 0 16 16" fill="none" xmlns="http://www.w3.org/2000/svg">
<path fill-rule="evenodd" clip-rule="evenodd" d="M12.5122 8.90663C12.2762 8.62396 11.8562 8.58529 11.5735 8.82129L8.66683 11.2433V3.33329C8.66683 2.96529 8.36817 2.66663 8.00017 2.66663C7.63217 2.66663 7.3335 2.96529 7.3335 3.33329V11.2433L4.42683 8.82129C4.1435 8.58529 3.7235 8.62396 3.48817 8.90663C3.25217 9.18929 3.29017 9.60996 3.5735 9.84529L7.5735 13.1786C7.60483 13.2053 7.64217 13.218 7.67683 13.238C7.70417 13.254 7.72817 13.2726 7.75817 13.2846C7.83617 13.3153 7.9175 13.3333 8.00017 13.3333C8.08283 13.3333 8.16417 13.3153 8.24217 13.2846C8.27217 13.2726 8.29617 13.254 8.3235 13.238C8.35817 13.218 8.3955 13.2053 8.42683 13.1786L12.4268 9.84529C12.7095 9.60996 12.7482 9.18929 12.5122 8.90663Z" fill="#FF007A"/>
<mask id="mask0" mask-type="alpha" maskUnits="userSpaceOnUse" x="3" y="2" width="10" height="12">
<path fill-rule="evenodd" clip-rule="evenodd" d="M12.5122 8.90663C12.2762 8.62396 11.8562 8.58529 11.5735 8.82129L8.66683 11.2433V3.33329C8.66683 2.96529 8.36817 2.66663 8.00017 2.66663C7.63217 2.66663 7.3335 2.96529 7.3335 3.33329V11.2433L4.42683 8.82129C4.1435 8.58529 3.7235 8.62396 3.48817 8.90663C3.25217 9.18929 3.29017 9.60996 3.5735 9.84529L7.5735 13.1786C7.60483 13.2053 7.64217 13.218 7.67683 13.238C7.70417 13.254 7.72817 13.2726 7.75817 13.2846C7.83617 13.3153 7.9175 13.3333 8.00017 13.3333C8.08283 13.3333 8.16417 13.3153 8.24217 13.2846C8.27217 13.2726 8.29617 13.254 8.3235 13.238C8.35817 13.218 8.3955 13.2053 8.42683 13.1786L12.4268 9.84529C12.7095 9.60996 12.7482 9.18929 12.5122 8.90663Z" fill="white"/>
</mask>
<g mask="url(#mask0)">
<rect width="16" height="16" fill="#FF007A"/>
</g>
</svg>
