<svg width="24" height="24" viewBox="0 0 24 24" fill="none" xmlns="http://www.w3.org/2000/svg">
<path fill-rule="evenodd" clip-rule="evenodd" d="M13.4152 11.9989L18.4009 16.9846C18.77 17.3537 18.77 17.9575 18.4009 18.3266L18.3288 18.3988C17.9597 18.7679 17.3558 18.7679 16.9867 18.3988L12.001 13.4131L7.01451 18.3996C6.6454 18.7687 6.04224 18.768 5.67313 18.3989L5.60101 18.3267C5.2319 17.9576 5.23119 17.3545 5.6003 16.9854L10.5868 11.9989L5.60015 7.01223C5.23104 6.64312 5.23175 6.03995 5.60086 5.67084L5.67298 5.59872C6.04209 5.22961 6.64525 5.2289 7.01436 5.59801L12.001 10.5847L16.9868 5.59882C17.356 5.22971 17.9598 5.22972 18.3289 5.59883L18.4011 5.67095C18.7702 6.04006 18.7702 6.64393 18.4011 7.01304L13.4152 11.9989Z" fill="#231F20"/>
</svg>
