<svg id="Layer_1" data-name="Layer 1" xmlns="http://www.w3.org/2000/svg" xmlns:xlink="http://www.w3.org/1999/xlink" viewBox="0 0 239.43 239.43"><defs><linearGradient id="linear-gradient" x1="6848.84" y1="3220.68" x2="6896.85" y2="3220.68" gradientTransform="rotate(.56 320703.984 -689421.214)" gradientUnits="userSpaceOnUse"><stop offset="0" stop-color="#fff"/><stop offset="1" stop-color="#fff" stop-opacity="0"/></linearGradient><linearGradient id="linear-gradient-2" x1="5983.74" y1="1144.94" x2="6036.53" y2="1123.35" gradientTransform="rotate(23.3 5526.509 -13636.603)" xlink:href="#linear-gradient"/><linearGradient id="linear-gradient-3" x1="6859.24" y1="3220.68" x2="6886.45" y2="3220.68" xlink:href="#linear-gradient"/><linearGradient id="linear-gradient-4" x1="5991.06" y1="1141.95" x2="6020.98" y2="1129.71" gradientTransform="rotate(23.3 5526.509 -13636.603)" xlink:href="#linear-gradient"/><style>.cls-2{fill:#fff}</style></defs><circle cx="118.22" cy="120.22" r="110.22" fill="#3a456b"/><path class="cls-2" d="M106.37 90l12.26-12 12.16 12.41 17.38.17-.17 17.34 12.16 12.41-12.4 12.16A12.37 12.37 0 00160 145l39.26.39A84.88 84.88 0 0049.84 69.93c-5.94 8.07-.08 19.52 9.95 19.61z"/><path class="cls-2" d="M130.18 149.74l-12.37 12.12-12.17-12.4-17.37-.17.17-17.38-12.17-12.4 12.41-12.17a12.48 12.48 0 00-12.36-12.6l-39-.38a85.12 85.12 0 00-3.9 29.64c1.85 42.84 36.1 78 78.89 80.9a84.77 84.77 0 0074.86-35.18 12.38 12.38 0 00-10-19.52z"/><path fill="#4dbd97" d="M140.98 111.11l-.05-.05.13-13.25-13.2-.13h-.05l-9.28-9.47-9.42 9.24-.05.05-13.25-.13-.13 13.18v.07l-9.47 9.28 9.24 9.42.05.05-.13 13.25 13.18.13h.07l9.28 9.47 9.42-9.24.05-.05 13.25.13.13-13.18v-.07l9.47-9.28-9.24-9.42z"/><path fill="url(#linear-gradient)" opacity=".46" d="M135.29 113.39l-.04-.04.1-9.94-9.9-.09-.04-.01-6.96-7.1-7.06 6.93-.04.04-9.94-.1-.09 9.89-.01.05-7.1 6.96 6.93 7.07.04.03-.1 9.94 9.89.1h.05l6.96 7.1 7.07-6.93.03-.04 9.94.1.1-9.89v-.05l7.1-6.96-6.93-7.06z"/><path fill="url(#linear-gradient-2)" opacity=".46" d="M136.6 120.51l-.02-.04 3.93-9.13-9.09-3.92-.03-.01-3.68-9.24-9.2 3.66-.04.02-9.13-3.93-3.91 9.08-.02.05-9.24 3.67 3.66 9.2.02.04-3.93 9.13L105 133l.05.02 3.67 9.24 9.2-3.66.04-.02 9.13 3.93 3.91-9.08.02-.04 9.24-3.68-3.66-9.2z"/><path fill="url(#linear-gradient-3)" opacity=".46" d="M127.89 116.34l-.02-.02.05-5.63-5.61-.05h-.02l-3.94-4.03-4.01 3.93-.02.02-5.63-.05-.05 5.6v.03l-4.03 3.94 3.93 4.01.02.02-.05 5.63 5.6.05h.03l3.94 4.03 4.01-3.93.02-.02 5.63.06.05-5.61v-.03l4.03-3.94-3.93-4.01z"/><path fill="url(#linear-gradient-4)" opacity=".46" d="M128.63 120.39l-.01-.03 2.23-5.17-5.15-2.22-.02-.01-2.09-5.24-5.2 2.08-.03.01-5.17-2.23-2.22 5.15-.01.02-5.24 2.09 2.08 5.21.01.02-2.23 5.18 5.15 2.21.02.01 2.09 5.24 5.21-2.08.02-.01 5.18 2.23 2.21-5.15.01-.02 5.24-2.09-2.08-5.2z"/></svg>